<svg width="131" height="74" viewBox="0 0 131 74" fill="none" xmlns="http://www.w3.org/2000/svg">
<path d="M7.19952 74C6.92904 71.6384 6.79359 69.2627 6.79385 66.885C6.79385 50.9859 12.9789 35.738 23.9885 24.4957C34.998 13.2534 49.9302 6.93749 65.5 6.93749C81.0698 6.93749 96.002 13.2534 107.012 24.4957C118.021 35.738 124.206 50.9859 124.206 66.885C124.206 69.2627 124.071 71.6384 123.8 74H130.617C130.86 71.6365 130.982 69.2615 130.982 66.885C130.699 49.3395 123.674 32.6105 111.423 20.3051C99.1718 7.99969 82.6756 1.10353 65.4911 1.10353C48.3066 1.10353 31.8104 7.99969 19.5593 20.3051C7.30815 32.6105 0.283529 49.3395 0 66.885C9.67686e-05 69.2615 0.122113 71.6365 0.365548 74H7.19952Z" fill="url(#paint0_linear_326_2)"/>
<path d="M6.61999 73.4674C6.38914 71.2812 6.27307 69.0839 6.27227 66.885C6.27185 58.6648 7.91244 50.5308 11.0938 42.9797C14.2752 35.4287 18.9306 28.6192 24.7758 22.9671C30.6209 17.315 37.533 12.9389 45.0899 10.1062C52.6468 7.2735 60.6899 6.04358 68.7279 6.49157C76.7659 6.93957 84.6301 9.05608 91.8402 12.7118C99.0503 16.3676 105.455 21.4858 110.663 27.754C115.871 34.0221 119.773 41.3086 122.131 49.1683C124.488 57.028 125.252 65.2961 124.376 73.4674L125.098 72.7982C125.281 70.8544 125.379 68.8788 125.379 66.8804C125.379 50.6626 119.07 35.1091 107.839 23.6414C96.609 12.1737 81.3775 5.73116 65.4956 5.73116C49.6136 5.73116 34.3821 12.1737 23.1518 23.6414C11.9216 35.1091 5.6125 50.6626 5.6125 66.8804C5.6125 68.8743 5.70612 70.8499 5.88889 72.7982L6.61553 73.4674H6.61999Z" fill="url(#paint1_linear_326_2)"/>
<path d="M0.833628 73.4674L1.43099 72.7982L5.89335 72.7982L6.61999 73.4674H0.833628Z" fill="url(#paint2_linear_326_2)"/>
<path d="M130.171 73.4674C130.376 71.3051 130.483 69.1019 130.483 66.885C130.483 49.2872 123.637 32.4102 111.451 19.9668C99.2653 7.52327 82.7378 0.532593 65.5045 0.532593C48.2711 0.532593 31.7436 7.52327 19.5578 19.9668C7.37196 32.4102 0.526033 49.2872 0.526033 66.885C0.526033 69.1019 0.628565 71.3051 0.838086 73.4674L1.43545 72.7982C1.26605 70.8544 1.17689 68.8743 1.17689 66.8804C1.17689 49.4589 7.95424 32.751 20.018 20.4322C32.0818 8.11331 48.4437 1.19266 65.5045 1.19266C82.5652 1.19266 98.9272 8.11331 110.991 20.4322C123.055 32.751 129.832 49.4589 129.832 66.8804C129.832 68.8697 129.743 70.8453 129.573 72.7982L130.171 73.4674Z" fill="url(#paint3_linear_326_2)"/>
<path d="M124.384 73.4674L125.102 72.7982L129.569 72.7982L130.166 73.4674H124.384Z" fill="url(#paint4_linear_326_2)"/>
<path d="M28.7089 60.5939L35.5117 53.6473H45.1586V74H34.8786V65.9244L28.7089 72.2201L22.5436 65.9244V74H12.2637V53.6473H21.9106L28.7089 60.5939Z" fill="#B7B6B6"/>
<path d="M28.7089 62.2964L21.4202 54.8536H13.4406V72.7937H21.3623V63.0202L28.7089 70.5221L36.06 63.0202V72.7937H43.9817V54.8536H36.002L28.7089 62.2964Z" fill="url(#paint5_linear_326_2)"/>
<path d="M35.4047 73.4628L36.06 72.7937H43.9817L44.637 73.4628H35.4047Z" fill="url(#paint6_linear_326_2)"/>
<path d="M12.7853 54.1844L13.4406 54.8536H21.4202L21.6922 54.1844H12.7853Z" fill="white"/>
<path d="M21.6922 54.1844L21.4202 54.8536L28.7089 62.2964L28.7089 61.3495L21.6922 54.1844Z" fill="url(#paint7_linear_326_2)"/>
<path d="M28.7089 61.3495L28.7089 62.2964L36.002 54.8536L35.7301 54.1844L28.7089 61.3495Z" fill="url(#paint8_linear_326_2)"/>
<path d="M44.637 54.1844L43.9817 54.8536H36.002L35.7301 54.1844H44.637Z" fill="white"/>
<path d="M44.637 54.1844L43.9817 54.8536V72.7937L44.637 73.4628V54.1844Z" fill="url(#paint9_linear_326_2)"/>
<path d="M35.4047 73.4628L36.06 72.7937V63.0202L35.4047 64.6316V73.4628Z" fill="black"/>
<path d="M28.7089 71.4644L28.7089 70.5221L36.06 63.0202L35.4047 64.6316L28.7089 71.4644Z" fill="url(#paint10_linear_326_2)"/>
<path d="M28.7089 71.4644L28.7089 70.5221L21.3623 63.0202L22.0176 64.6316L28.7089 71.4644Z" fill="url(#paint11_linear_326_2)"/>
<path d="M22.0176 73.4628L21.3623 72.7937V63.0202L22.0176 64.6316V73.4628Z" fill="url(#paint12_linear_326_2)"/>
<path d="M22.0176 73.4628L21.3623 72.7937H13.4406L12.7853 73.4628L22.0176 73.4628Z" fill="url(#paint13_linear_326_2)"/>
<path d="M12.7853 54.1844L13.4406 54.8536V72.7937L12.7853 73.4628V54.1844Z" fill="url(#paint14_linear_326_2)"/>
<path fill-rule="evenodd" clip-rule="evenodd" d="M70.9832 53.6336L83.9602 74H73.3548L71.9105 71.7239H59.1297L57.6853 74H47.0799L60.0614 53.6336H70.9832ZM68.5314 66.3296L65.5312 61.5771L62.5221 66.3296H68.5314Z" fill="#B7B6B6"/>
<path d="M60.6988 54.8308L49.2465 72.7982H57.0612L58.5056 70.5221H72.5658L74.0101 72.7982H81.8115L70.3457 54.8308H60.6988ZM65.5223 59.383L70.6845 67.5268H60.36L65.5312 59.3739L65.5223 59.383Z" fill="url(#paint15_linear_326_2)"/>
<path d="M65.5223 59.3739V60.603L61.5637 66.8485L60.36 67.5177L65.5223 59.3739Z" fill="url(#paint16_linear_326_2)"/>
<path d="M60.3422 54.1617L60.6988 54.8308L49.2465 72.7982L48.0384 73.4674L60.3422 54.1617Z" fill="url(#paint17_linear_326_2)"/>
<path d="M70.6845 67.5177L69.4809 66.8485H61.5637L60.36 67.5177H70.6845Z" fill="url(#paint18_linear_326_2)"/>
<path d="M70.6845 67.5177L69.4809 66.8485L65.5223 60.603V59.3739L70.6845 67.5177Z" fill="url(#paint19_linear_326_2)"/>
<path d="M57.4044 73.4674L57.0478 72.7982L49.2465 72.7982L48.0384 73.4674H57.4044Z" fill="url(#paint20_linear_326_2)"/>
<path d="M57.4044 73.4674L57.0478 72.7982L58.4922 70.5221L58.8488 71.1868L57.4044 73.4674Z" fill="url(#paint21_linear_326_2)"/>
<path d="M72.1958 71.1868L72.5524 70.5221H58.4922L58.8488 71.1868L72.1958 71.1868Z" fill="url(#paint22_linear_326_2)"/>
<path d="M72.1958 71.1868L72.5524 70.5221L73.9968 72.7982L73.6401 73.4674L72.1958 71.1868Z" fill="url(#paint23_linear_326_2)"/>
<path d="M83.0017 73.4674L81.7981 72.7982H73.9968L73.6401 73.4674H83.0017Z" fill="url(#paint24_linear_326_2)"/>
<path d="M83.0017 73.4674L81.7981 72.7982L70.3457 54.8308L70.7024 54.1617L83.0017 73.4674Z" fill="url(#paint25_linear_326_2)"/>
<path d="M60.3422 54.1617L60.6988 54.8308H70.3457L70.7024 54.1617H60.3422Z" fill="white"/>
<path d="M108.274 53.6473H118.549V74H108.274L96.0946 64.791V74H85.8102V53.6473H96.0144L108.274 62.9337V53.6473Z" fill="#B7B6B6"/>
<path d="M109.45 54.8536V65.3281L95.6221 54.8536H86.9916V72.7937H94.9133V62.4056L108.661 72.7937H117.372V54.8536H109.45Z" fill="url(#paint26_linear_326_2)"/>
<path d="M86.3363 54.1844L86.9916 54.8536V72.7937L86.3363 73.4628V54.1844Z" fill="url(#paint27_linear_326_2)"/>
<path d="M86.3363 54.1844L86.9916 54.8536H95.6221L95.8405 54.1844H86.3363Z" fill="white"/>
<path d="M108.795 63.9989L109.45 65.3281L95.6221 54.8536L95.8405 54.1844L108.795 63.9989Z" fill="url(#paint28_linear_326_2)"/>
<path d="M108.795 63.9989L109.45 65.3281V54.8536L108.795 54.1844L108.795 63.9989Z" fill="url(#paint29_linear_326_2)"/>
<path d="M118.028 54.1844L117.372 54.8536H109.45L108.795 54.1844H118.028Z" fill="white"/>
<path d="M118.028 54.1844L117.372 54.8536V72.7937L118.028 73.4628V54.1844Z" fill="url(#paint30_linear_326_2)"/>
<path d="M108.443 73.4628L108.661 72.7937H117.372L118.028 73.4628L108.443 73.4628Z" fill="url(#paint31_linear_326_2)"/>
<path d="M108.443 73.4628L108.661 72.7937L94.9133 62.4056L95.5686 63.7303L108.443 73.4628Z" fill="url(#paint32_linear_326_2)"/>
<path d="M95.5686 73.4628L94.9133 72.7937V62.4056L95.5686 63.7303L95.5686 73.4628Z" fill="url(#paint33_linear_326_2)"/>
<path d="M95.5686 73.4628L94.9133 72.7937H86.9916L86.3363 73.4628L95.5686 73.4628Z" fill="url(#paint34_linear_326_2)"/>
<defs>
<linearGradient id="paint0_linear_326_2" x1="65.5" y1="74" x2="65.5" y2="-0.579592" gradientUnits="userSpaceOnUse">
<stop stop-color="#666666"/>
<stop offset="0.5" stop-color="#8C8C8C"/>
<stop offset="1" stop-color="#E6E6E6"/>
</linearGradient>
<linearGradient id="paint1_linear_326_2" x1="130.987" y1="37.2712" x2="0.00487166" y2="37.2712" gradientUnits="userSpaceOnUse">
<stop/>
<stop offset="0.35"/>
<stop offset="0.6" stop-color="#EDEDED"/>
<stop offset="1" stop-color="#EDEDED"/>
</linearGradient>
<linearGradient id="paint2_linear_326_2" x1="65.4911" y1="74" x2="65.4911" y2="0.532593" gradientUnits="userSpaceOnUse">
<stop/>
<stop offset="1" stop-color="#666666"/>
</linearGradient>
<linearGradient id="paint3_linear_326_2" x1="-0.00449308" y1="37.2663" x2="130.978" y2="37.2663" gradientUnits="userSpaceOnUse">
<stop/>
<stop offset="0.15"/>
<stop offset="0.5" stop-color="#EDEDED"/>
<stop offset="1" stop-color="#EDEDED"/>
</linearGradient>
<linearGradient id="paint4_linear_326_2" x1="65.5416" y1="74" x2="65.5416" y2="0.532593" gradientUnits="userSpaceOnUse">
<stop/>
<stop offset="1" stop-color="#808080"/>
</linearGradient>
<linearGradient id="paint5_linear_326_2" x1="13.8993" y1="87.5712" x2="114.477" y2="-15.5795" gradientUnits="userSpaceOnUse">
<stop stop-color="#666666"/>
<stop offset="1" stop-color="#E6E6E6"/>
</linearGradient>
<linearGradient id="paint6_linear_326_2" x1="65.4595" y1="74" x2="65.4595" y2="0.532593" gradientUnits="userSpaceOnUse">
<stop/>
<stop offset="1" stop-color="#4D4D4D"/>
</linearGradient>
<linearGradient id="paint7_linear_326_2" x1="0" y1="37.2663" x2="130.982" y2="37.2663" gradientUnits="userSpaceOnUse">
<stop stop-color="#EDEDED"/>
<stop offset="1" stop-color="#CCCCCC"/>
</linearGradient>
<linearGradient id="paint8_linear_326_2" x1="67.1724" y1="39.4101" x2="63.735" y2="32.6699" gradientUnits="userSpaceOnUse">
<stop stop-color="#4D4D4D"/>
<stop offset="1"/>
</linearGradient>
<linearGradient id="paint9_linear_326_2" x1="65.0456" y1="0.532593" x2="65.0456" y2="74" gradientUnits="userSpaceOnUse">
<stop stop-color="#EDEDED"/>
<stop offset="1" stop-color="#D9D9D9"/>
</linearGradient>
<linearGradient id="paint10_linear_326_2" x1="9582.66" y1="10890.6" x2="9518.41" y2="10774.9" gradientUnits="userSpaceOnUse">
<stop/>
<stop offset="1" stop-color="#4D4D4D"/>
</linearGradient>
<linearGradient id="paint11_linear_326_2" x1="7289.16" y1="10890.6" x2="7353.41" y2="10774.9" gradientUnits="userSpaceOnUse">
<stop/>
<stop offset="1" stop-color="#4D4D4D"/>
</linearGradient>
<linearGradient id="paint12_linear_326_2" x1="65.9367" y1="0.532593" x2="65.9367" y2="74" gradientUnits="userSpaceOnUse">
<stop/>
<stop offset="1" stop-color="#EDEDED"/>
</linearGradient>
<linearGradient id="paint13_linear_326_2" x1="5113.54" y1="11856.7" x2="5113.54" y2="11748.7" gradientUnits="userSpaceOnUse">
<stop/>
<stop offset="1" stop-color="#4D4D4D"/>
</linearGradient>
<linearGradient id="paint14_linear_326_2" x1="3756.57" y1="10300.7" x2="3949.11" y2="10300.7" gradientUnits="userSpaceOnUse">
<stop/>
<stop offset="1" stop-color="#4D4D4D"/>
</linearGradient>
<linearGradient id="paint15_linear_326_2" x1="65.4642" y1="74" x2="65.4642" y2="0.532593" gradientUnits="userSpaceOnUse">
<stop stop-color="#BFBFBF"/>
<stop offset="1" stop-color="#E6E6E6"/>
</linearGradient>
<linearGradient id="paint16_linear_326_2" x1="19251.8" y1="10239.7" x2="17735" y2="10239.7" gradientUnits="userSpaceOnUse">
<stop/>
<stop offset="1" stop-color="#EDEDED"/>
</linearGradient>
<linearGradient id="paint17_linear_326_2" x1="15919.6" y1="10298.5" x2="16020.3" y2="10415.8" gradientUnits="userSpaceOnUse">
<stop/>
<stop offset="1" stop-color="#4D4D4D"/>
</linearGradient>
<linearGradient id="paint18_linear_326_2" x1="17735" y1="10843.6" x2="20768.5" y2="10843.6" gradientUnits="userSpaceOnUse">
<stop stop-color="#EDEDED"/>
<stop offset="1" stop-color="#D9D9D9"/>
</linearGradient>
<linearGradient id="paint19_linear_326_2" x1="19251.8" y1="10239.7" x2="20768.5" y2="10239.7" gradientUnits="userSpaceOnUse">
<stop/>
<stop offset="1" stop-color="#4D4D4D"/>
</linearGradient>
<linearGradient id="paint20_linear_326_2" x1="15491.3" y1="11857.4" x2="15491.3" y2="11749.4" gradientUnits="userSpaceOnUse">
<stop/>
<stop offset="1" stop-color="#4D4D4D"/>
</linearGradient>
<linearGradient id="paint21_linear_326_2" x1="16945.2" y1="11590" x2="17043.5" y2="11704.5" gradientUnits="userSpaceOnUse">
<stop stop-color="#4D4D4D"/>
<stop offset="1"/>
</linearGradient>
<linearGradient id="paint22_linear_326_2" x1="19251.8" y1="11489.4" x2="19251.8" y2="11382.1" gradientUnits="userSpaceOnUse">
<stop/>
<stop offset="1" stop-color="#4D4D4D"/>
</linearGradient>
<linearGradient id="paint23_linear_326_2" x1="21395.9" y1="11649.5" x2="21494.3" y2="11535" gradientUnits="userSpaceOnUse">
<stop/>
<stop offset="1" stop-color="#4D4D4D"/>
</linearGradient>
<linearGradient id="paint24_linear_326_2" x1="23012.3" y1="11857.4" x2="23012.3" y2="11749.4" gradientUnits="userSpaceOnUse">
<stop/>
<stop offset="1" stop-color="#4D4D4D"/>
</linearGradient>
<linearGradient id="paint25_linear_326_2" x1="20669" y1="10299.9" x2="24387.6" y2="10299.9" gradientUnits="userSpaceOnUse">
<stop stop-color="#EDEDED"/>
<stop offset="1" stop-color="#D9D9D9"/>
</linearGradient>
<linearGradient id="paint26_linear_326_2" x1="34486.3" y1="10300.7" x2="25559.9" y2="10300.7" gradientUnits="userSpaceOnUse">
<stop stop-color="#666666"/>
<stop offset="1" stop-color="#E6E6E6"/>
</linearGradient>
<linearGradient id="paint27_linear_326_2" x1="25367.3" y1="10300.7" x2="25559.9" y2="10300.7" gradientUnits="userSpaceOnUse">
<stop/>
<stop offset="1" stop-color="#4D4D4D"/>
</linearGradient>
<linearGradient id="paint28_linear_326_2" x1="0" y1="37.2663" x2="130.982" y2="37.2663" gradientUnits="userSpaceOnUse">
<stop stop-color="#EDEDED"/>
<stop offset="1" stop-color="#BFBFBF"/>
</linearGradient>
<linearGradient id="paint29_linear_326_2" x1="31966.2" y1="9644.6" x2="32158.7" y2="9644.6" gradientUnits="userSpaceOnUse">
<stop/>
<stop offset="1" stop-color="#4D4D4D"/>
</linearGradient>
<linearGradient id="paint30_linear_326_2" x1="34486.3" y1="10300.7" x2="34678.8" y2="10300.7" gradientUnits="userSpaceOnUse">
<stop stop-color="#EDEDED"/>
<stop offset="1" stop-color="#D9D9D9"/>
</linearGradient>
<linearGradient id="paint31_linear_326_2" x1="33270.8" y1="11856.7" x2="33270.8" y2="11748.7" gradientUnits="userSpaceOnUse">
<stop/>
<stop offset="1" stop-color="#4D4D4D"/>
</linearGradient>
<linearGradient id="paint32_linear_326_2" x1="29818.1" y1="11008.2" x2="29866" y2="10892.8" gradientUnits="userSpaceOnUse">
<stop/>
<stop offset="1" stop-color="#4D4D4D"/>
</linearGradient>
<linearGradient id="paint33_linear_326_2" x1="27984.3" y1="10072.2" x2="27984.3" y2="11856.7" gradientUnits="userSpaceOnUse">
<stop/>
<stop offset="1" stop-color="#EDEDED"/>
</linearGradient>
<linearGradient id="paint34_linear_326_2" x1="1970.01" y1="180.784" x2="1970.01" y2="179.8" gradientUnits="userSpaceOnUse">
<stop/>
<stop offset="1" stop-color="#4D4D4D"/>
</linearGradient>
</defs>
</svg>
