<svg width="129" height="127" viewBox="0 0 129 127" fill="none" xmlns="http://www.w3.org/2000/svg">
<path fill-rule="evenodd" clip-rule="evenodd" d="M64.4122 22.2973C75.2833 22.2973 85.7091 26.6476 93.3961 34.3912C101.083 42.1348 105.402 52.6374 105.402 63.5885C105.437 68.9987 104.393 74.3609 102.33 79.3565C100.268 84.3522 97.2306 88.8794 93.3976 92.6693C89.6149 96.5459 85.1036 99.6247 80.1271 101.726C75.1505 103.828 69.8083 104.91 64.4122 104.909C53.5157 104.877 43.0703 100.522 35.3389 92.7873C27.7128 85.0576 23.4295 74.6043 23.4226 63.7065C23.4226 52.7553 27.7411 42.2528 35.4282 34.5092C43.1152 26.7655 53.541 22.4152 64.4122 22.4152V22.2973ZM64.4122 22.9461C53.7103 23.0159 43.4678 27.3355 35.9085 34.967C28.3492 42.5985 24.0835 52.9257 24.0374 63.7065C24.0305 69.0512 25.0895 74.3429 27.1516 79.2675C29.2137 84.1921 32.2368 88.6492 36.0415 92.3744C39.759 96.1605 44.1936 99.1558 49.0823 101.182C53.9709 103.209 59.2139 104.226 64.5 104.172C75.1594 104.164 85.3813 99.9011 92.9269 92.3166C100.472 84.7321 104.727 74.4443 104.758 63.7065C104.781 58.3571 103.754 53.056 101.736 48.1079C99.7181 43.1598 96.749 38.6624 92.9995 34.8743C89.25 31.0862 84.7941 28.0823 79.888 26.0352C74.9819 23.9881 69.7224 22.9383 64.4122 22.9461Z" fill="#C6C5C0"/>
<path fill-rule="evenodd" clip-rule="evenodd" d="M64.4122 0.412914C78.1664 0.431558 91.5358 4.98986 102.474 13.3902L109.442 6.37065L121.68 18.699L114.888 25.8955C123.299 37.2979 127.648 51.2243 127.231 65.424C126.815 79.6237 121.657 93.2671 112.592 104.149C103.527 115.031 91.0847 122.517 77.2751 125.395C63.4655 128.273 49.0958 126.377 36.4883 120.012C23.8809 113.647 13.7722 103.186 7.79607 90.3186C1.81991 77.4514 0.3254 62.9301 3.55407 49.1015C6.78275 35.2729 14.546 22.9451 25.5891 14.1102C36.6322 5.27526 50.3101 0.449547 64.4122 0.412914ZM64.4122 15.1598C54.9531 15.1773 45.7113 18.0174 37.8532 23.3215C29.9952 28.6257 23.8732 36.1561 20.26 44.9622C16.6469 53.7684 15.7046 63.4554 17.5522 72.8005C19.3997 82.1457 23.9541 90.73 30.6406 97.4698C37.3272 104.21 45.846 108.803 55.1217 110.67C64.3974 112.536 74.0143 111.593 82.7583 107.959C91.5023 104.325 98.9814 98.1621 104.252 90.2494C109.522 82.3368 112.347 73.0286 112.37 63.5C112.347 50.7025 107.284 38.4372 98.2924 29.3963C89.3011 20.3554 77.1162 15.2777 64.4122 15.2778V15.1598Z" fill="url(#paint0_radial_326_5)"/>
<path fill-rule="evenodd" clip-rule="evenodd" d="M64.4122 15.0713C70.7619 15.0519 77.0529 16.296 82.9242 18.7321C88.7954 21.1683 94.1311 24.7486 98.6252 29.2675C103.119 33.7864 106.683 39.1549 109.112 45.0649C111.541 50.9749 112.788 57.31 112.78 63.7065C112.788 70.103 111.541 76.438 109.112 82.348C106.683 88.258 103.119 93.6265 98.6252 98.1454C94.1311 102.664 88.7954 106.245 82.9242 108.681C77.0529 111.117 70.7619 112.361 64.4122 112.342C51.6228 112.318 39.3652 107.184 30.3299 98.0655C21.2947 88.9471 16.2201 76.59 16.2202 63.7065C16.2091 57.318 17.4529 50.9904 19.8799 45.0883C22.3069 39.1861 25.8692 33.826 30.3615 29.3168C34.8088 24.7768 40.112 21.1779 45.9594 18.7316C51.8068 16.2853 58.0806 15.0408 64.4122 15.0713ZM64.4122 15.7202C51.7705 15.7026 39.6391 20.7415 30.6836 29.7297C26.2632 34.1903 22.7655 39.4904 20.3933 45.3228C18.0211 51.1551 16.8216 57.4037 16.8643 63.7065C16.8468 76.4411 21.8489 88.6619 30.7714 97.6832C39.7583 106.569 51.8198 111.592 64.4122 111.693C77.0362 111.621 89.1356 106.596 98.1407 97.6832C102.575 93.2235 106.093 87.9274 108.494 82.0975C110.895 76.2677 112.133 70.0183 112.136 63.7065C112.155 57.3919 110.933 51.1359 108.541 45.2993C106.148 39.4628 102.632 34.1611 98.1957 29.7001C93.7591 25.2391 88.4897 21.7071 82.6914 19.3077C76.8931 16.9083 70.6806 15.689 64.4122 15.7202Z" fill="url(#paint1_linear_326_5)"/>
<path fill-rule="evenodd" clip-rule="evenodd" d="M64.4122 1.92042e-06C78.3308 -0.0437312 91.8673 4.58466 102.884 13.1542L102.65 13.3902C90.1289 3.76125 74.4497 -0.727501 58.7734 0.828909C43.0971 2.38532 28.5895 9.87113 18.1758 21.7771C7.76198 33.683 2.21653 49.1235 2.65749 64.9855C3.09844 80.8475 9.49299 95.9512 20.5519 107.251C31.6108 118.552 46.5115 125.208 62.2497 125.878C77.9879 126.548 93.3931 121.183 105.359 110.863C117.325 100.543 124.963 86.037 126.731 70.2691C128.499 54.5012 124.267 38.6443 114.888 25.8955L115.093 25.689C123.193 36.6042 127.559 49.872 127.536 63.5C127.534 71.8633 125.893 80.144 122.707 87.8672C119.522 95.5905 114.855 102.605 108.974 108.507C103.136 114.415 96.1896 119.093 88.5389 122.268C80.8882 125.443 72.6865 127.051 64.4122 127C47.7689 127.004 31.8046 120.353 20.0263 108.507C8.1805 96.5636 1.50728 80.3834 1.46391 63.5C1.55594 46.7026 8.21475 30.6183 19.9975 18.7323C31.7802 6.84636 47.7377 0.116127 64.4122 1.92042e-06Z" fill="url(#paint2_radial_326_5)"/>
<path fill-rule="evenodd" clip-rule="evenodd" d="M64.4122 15.5137C73.8779 15.4962 83.136 18.3078 91.0149 23.5926C98.8938 28.8774 105.039 36.398 108.674 45.2025C112.308 54.007 113.268 63.6997 111.432 73.054C109.596 82.4083 105.047 91.0037 98.3595 97.7525C91.6724 104.501 83.1482 109.1 73.8656 110.967C64.583 112.833 54.9594 111.884 46.2125 108.239C37.4657 104.594 29.9888 98.4172 24.7281 90.4901C19.4674 82.5629 16.6593 73.2418 16.6593 63.7065C16.6516 50.9379 21.6773 38.6887 30.6319 29.6517C39.5865 20.6146 51.7369 15.5293 64.4122 15.5137ZM64.4122 22.2973C56.3052 22.2973 48.3803 24.7189 41.6396 29.2561C34.8989 33.7932 29.6452 40.242 26.5427 47.787C23.4403 55.332 22.6286 63.6343 24.2102 71.644C25.7918 79.6537 29.6957 87.0111 35.4282 92.7858C41.1607 98.5605 48.4643 102.493 56.4155 104.086C64.3667 105.68 72.6083 104.862 80.0982 101.737C87.588 98.6113 93.9897 93.319 98.4937 86.5286C102.998 79.7383 105.402 71.7551 105.402 63.5885C105.402 52.6374 101.083 42.1348 93.3961 34.3912C85.7091 26.6476 75.2833 22.2973 64.4122 22.2973Z" fill="url(#paint3_radial_326_5)"/>
<path fill-rule="evenodd" clip-rule="evenodd" d="M7.29029 78.8072C7.27464 78.8551 7.27464 78.9068 7.29029 78.9547H7.61235V78.4828C7.48359 78.4969 7.36161 78.5481 7.26101 78.6303C7.25552 78.6908 7.2656 78.7518 7.29029 78.8072Z" fill="url(#paint4_linear_326_5)" style="mix-blend-mode:multiply"/>
<path d="M16.5129 77.4505H16.2202V77.6865H16.5129V77.4505Z" fill="url(#paint5_linear_326_5)" style="mix-blend-mode:multiply"/>
<path d="M16.5129 77.7455H16.2202V78.0109H16.5129V77.7455Z" fill="url(#paint6_linear_326_5)" style="mix-blend-mode:multiply"/>
<path fill-rule="evenodd" clip-rule="evenodd" d="M10.2767 78.8072C10.2586 78.8547 10.2586 78.9072 10.2767 78.9547C10.3247 78.9672 10.375 78.9672 10.4231 78.9547V78.4828C10.2943 78.4969 10.1723 78.5481 10.0717 78.6303C10.0911 78.673 10.1195 78.7109 10.1549 78.7414C10.1903 78.772 10.2318 78.7944 10.2767 78.8072Z" fill="url(#paint7_linear_326_5)" style="mix-blend-mode:multiply"/>
<path d="M18.3282 77.8929H17.5084V78.2764H18.3282V77.8929Z" fill="url(#paint8_linear_326_5)" style="mix-blend-mode:multiply"/>
<path d="M3.24989 76.6837H25.677C26.598 79.3825 27.8054 81.9733 29.2783 84.4111H5.44576C4.54642 81.8866 3.81288 79.3052 3.24989 76.6837Z" fill="url(#paint9_linear_326_5)" style="mix-blend-mode:multiply"/>
<path d="M18.3282 77.5095H17.5084V77.8634H18.3282V77.5095Z" fill="url(#paint10_linear_326_5)" style="mix-blend-mode:multiply"/>
<path fill-rule="evenodd" clip-rule="evenodd" d="M103.382 76.6837H125.897C125.334 79.3052 124.6 81.8866 123.701 84.4111H99.8974C101.317 81.9616 102.485 79.3724 103.382 76.6837Z" fill="url(#paint11_linear_326_5)" style="mix-blend-mode:multiply"/>
<path fill-rule="evenodd" clip-rule="evenodd" d="M126.892 47.5734C128.35 52.7527 129.06 58.1167 129 63.5C128.959 69.0806 128.252 74.6359 126.892 80.046H2.31298V79.8395H126.687C128.157 74.4505 128.876 68.882 128.824 63.2935C128.859 57.9913 128.209 52.7071 126.892 47.5734Z" fill="#1D1D1B"/>
<path fill-rule="evenodd" clip-rule="evenodd" d="M2.10803 47.3669H126.892C128.187 52.5745 128.826 57.9253 128.795 63.2935C128.856 68.8806 128.147 74.4491 126.687 79.8395H2.31298C0.799352 74.4557 0.0211962 68.8891 0 63.2935C0.0506353 57.9176 0.758648 52.5684 2.10803 47.3669Z" fill="url(#paint12_radial_326_5)"/>
<path fill-rule="evenodd" clip-rule="evenodd" d="M112.136 2.12355L126.072 16.1331L115.737 26.5444L116.352 27.3997L108.974 33.3279L106.661 34.1832L121.856 18.699L109.618 6.37065L94.4517 21.6484L95.0665 19.5249L112.136 2.12355Z" fill="url(#paint13_linear_326_5)"/>
<path fill-rule="evenodd" clip-rule="evenodd" d="M98.2285 0.648864C110.394 7.29224 120.42 17.3004 127.126 29.4937V0.648864H98.2285Z" fill="url(#paint14_radial_326_5)"/>
<path fill-rule="evenodd" clip-rule="evenodd" d="M127.126 1.92039e-06C127.331 1.92039e-06 127.536 0.206458 127.536 0.648864H97.8187C97.8187 0.206458 98.0236 1.92039e-06 98.2286 1.92039e-06H127.126Z" fill="url(#paint15_linear_326_5)"/>
<path fill-rule="evenodd" clip-rule="evenodd" d="M127.536 29.4937C127.536 29.9066 127.331 30.1131 127.126 30.1131L126.892 29.7002V1.92039e-06H127.126C127.331 1.92039e-06 127.536 0.206458 127.536 0.648864V29.4937Z" fill="url(#paint16_linear_326_5)"/>
<path fill-rule="evenodd" clip-rule="evenodd" d="M109.618 71.4338C103.996 71.4338 99.3997 67.9831 99.3997 63.7065C99.3997 59.4299 103.996 56.0381 109.618 56.0381C115.239 56.0381 120.041 59.4299 120.041 63.7065C120.041 67.9831 115.356 71.4338 109.618 71.4338ZM109.618 58.2796C107.598 58.2796 106.134 60.5506 106.134 63.7065C106.134 66.8623 107.627 68.9269 109.618 68.9269C111.609 68.9269 113.102 66.5379 113.102 63.7065C113.102 60.8751 111.55 58.2796 109.618 58.2796ZM45.5277 71.4338C39.9063 71.4338 35.3389 67.9831 35.3389 63.7065C35.3389 59.4299 39.9941 56.1856 45.5277 56.1856C51.0613 56.1856 55.9507 59.5478 55.9507 63.7065C55.9507 67.8651 51.2662 71.4338 45.5277 71.4338ZM45.5277 58.4861C43.5368 58.4861 42.0436 60.7276 42.0436 63.7065C42.0436 66.6853 43.5368 68.9269 45.5277 68.9269C47.5186 68.9269 49.0411 66.5379 49.0411 63.7065C49.0411 60.8751 47.4308 58.4861 45.5277 58.4861ZM83.0624 71.0209L76.4455 58.663H73.1956V56.6575H87.6298V58.663H83.97L89.0937 67.2457L93.3684 58.5451H90.909V56.5395H100.922V58.5451H97.438L90.9675 70.8734L83.0624 71.0209ZM56.712 71.0209V68.6024H60.1668V58.6925H56.8877V56.687H70.2385V58.6925H66.7837V68.6024H70.2971C71.4144 68.5961 72.4867 68.1582 73.2929 67.379C74.0991 66.5997 74.5778 65.5386 74.6303 64.4143H76.8261V71.1684L56.712 71.0209ZM18.9723 71.0209L12.3554 58.663H9.07626V56.6575H23.4812V58.663H19.8214L24.9451 67.2457L29.4246 58.5451H26.7603V56.5395H36.7735V58.5451H33.3187L26.8189 71.0209H18.9723Z" fill="white"/>
<path d="M109.618 56.0381C115.298 56.0381 120.041 59.4594 120.041 63.7065C120.041 67.9536 115.386 71.3453 109.706 71.3453C104.026 71.3453 99.5461 67.8356 99.5461 63.7065C99.5461 59.5773 104.143 56.0381 109.618 56.0381ZM109.618 68.9858C111.521 68.9858 113.19 66.6558 113.19 63.677C113.19 60.6981 111.521 58.1616 109.618 58.1616C107.715 58.1616 106.046 60.4916 106.046 63.677C106.046 66.8623 107.51 68.9858 109.618 68.9858ZM45.5277 56.274C51.2369 56.274 55.8629 59.6658 55.8629 63.7065C55.8629 67.7471 51.2369 71.3453 45.5277 71.3453C39.8184 71.3453 35.4267 67.8356 35.4267 63.7065C35.4267 59.5773 40.0527 56.274 45.5277 56.274ZM45.5277 69.0153C47.4308 69.0153 49.1289 66.6853 49.1289 63.7065C49.1289 60.7276 47.4308 58.3976 45.5277 58.3976C43.6246 58.3976 41.9557 60.7276 41.9557 63.7065C41.9557 66.6853 43.4197 69.0153 45.5277 69.0153ZM100.776 56.687V58.604H97.3795L90.7626 70.9324H83.0624L76.5334 58.604H73.1956V56.687H87.542V58.604H83.9115L88.9473 67.3047L93.3976 58.604H90.7626V56.687H100.776ZM69.8872 56.687V58.604H66.608V68.6024H70.2678C71.4057 68.6036 72.5002 68.1629 73.3237 67.3718C74.1471 66.5808 74.6361 65.5003 74.6888 64.3553H76.7969V70.9324H56.712L56.712 68.6024L60.079 68.6024V58.604H56.712V56.687H69.975H69.8872ZM36.6857 56.687V58.604H33.3187L26.7603 70.9324H18.9723L12.4433 58.604H9.07626V56.687H23.4226V58.604H19.8214L24.8865 67.3047L29.5125 58.604H26.7603V56.687H36.6857ZM109.618 56.0381C103.938 56.0381 99.3118 59.5478 99.3118 63.8539C99.3118 68.16 103.938 71.6698 109.618 71.6698C115.298 71.6698 120.041 68.0125 120.041 63.7065C120.041 59.4004 115.415 56.0381 109.618 56.0381ZM109.618 68.9858C107.685 68.9858 106.222 66.7738 106.222 63.8539C106.222 60.934 107.656 58.5156 109.618 58.5156C111.579 58.5156 113.014 60.9046 113.014 63.8539C113.014 66.8033 111.462 68.9858 109.618 68.9858ZM45.5277 56.0381C39.9648 56.0381 35.1339 59.5773 35.1339 63.7065C35.1339 67.8356 39.7306 71.5223 45.4106 71.5223C51.0906 71.5223 55.9215 68.0125 55.9215 63.7065C55.9215 59.4004 51.3248 56.0381 45.5277 56.0381ZM45.5277 68.7794C43.5953 68.7794 42.1314 66.5674 42.1314 63.6475C42.1314 60.7276 43.5953 58.5156 45.5277 58.5156C47.4601 58.5156 48.9532 60.8751 48.9532 63.6475C48.9532 66.4199 47.3722 68.7794 45.5277 68.7794ZM100.951 56.451H90.7626V58.722H93.1927L88.9473 66.9508L84.2043 58.781H87.6591V56.51H73.02V58.781H76.4162L82.916 71.0209H90.9383L97.4088 58.781H100.864V56.51L100.951 56.451ZM70.2678 56.51H56.5363V58.781H59.9033V68.4255H56.5363V71.1094H77.0311V64.1784H74.5717C74.5679 64.7425 74.4533 65.3003 74.2346 65.8196C74.0159 66.3389 73.6973 66.8095 73.2973 67.2043C72.8972 67.5991 72.4236 67.9102 71.9037 68.1198C71.3837 68.3294 70.8278 68.4333 70.2678 68.4255H66.7837V58.781H70.2678V56.51ZM36.9784 56.51H26.5847V58.781H29.2783L24.8572 66.9508L20.1142 58.781H23.569V56.51H8.78348V58.781H12.3261L18.8259 71.0209H26.8774L33.3479 58.781H36.8028V56.51H36.9784Z" fill="#323230"/>
<path d="M2.34226 47.6029C0.996942 52.8052 0.288997 58.1539 0.234226 63.5295C0.234226 63.9719 0.380617 66.6853 0.380617 67.1572L0.761235 71.2568C0.761235 70.9029 0.585565 64.2373 0.585565 63.8834C0.716905 58.5659 1.50369 53.2854 2.92783 48.1633L46.8452 47.9568L65.9054 47.6029H2.34226Z" fill="url(#paint17_linear_326_5)"/>
<defs>
<radialGradient id="paint0_radial_326_5" cx="0" cy="0" r="1" gradientUnits="userSpaceOnUse" gradientTransform="translate(18.3618 50.9249) scale(134.577 132.489)">
<stop stop-color="white"/>
<stop offset="0.04" stop-color="#FDFCFC"/>
<stop offset="0.22" stop-color="#FCFBFA"/>
<stop offset="0.23" stop-color="#F9F8F7"/>
<stop offset="0.38" stop-color="#B7B6B5"/>
<stop offset="0.5" stop-color="#888784"/>
<stop offset="0.59" stop-color="#6A6966"/>
<stop offset="0.65" stop-color="#5F5E5B"/>
<stop offset="0.73" stop-color="#555451"/>
<stop offset="0.87" stop-color="#3A3935"/>
<stop offset="1" stop-color="#1D1C18"/>
</radialGradient>
<linearGradient id="paint1_linear_326_5" x1="31.4882" y1="52.2947" x2="93.9414" y2="74.114" gradientUnits="userSpaceOnUse">
<stop stop-color="#E4E2DC"/>
<stop offset="1" stop-color="white"/>
</linearGradient>
<radialGradient id="paint2_radial_326_5" cx="0" cy="0" r="1" gradientUnits="userSpaceOnUse" gradientTransform="translate(102.58 104.142) scale(146.859 144.578)">
<stop stop-color="#C6C6C1"/>
<stop offset="1" stop-color="#87867E"/>
</radialGradient>
<radialGradient id="paint3_radial_326_5" cx="0" cy="0" r="1" gradientUnits="userSpaceOnUse" gradientTransform="translate(94.9368 93.4632) scale(135.872 133.763)">
<stop stop-color="white"/>
<stop offset="0.21" stop-color="#F2F2F2"/>
<stop offset="0.3" stop-color="#E7E7E7"/>
<stop offset="0.38" stop-color="#C2C1C0"/>
<stop offset="0.45" stop-color="#A4A3A2"/>
<stop offset="0.51" stop-color="#8F8E8C"/>
<stop offset="0.58" stop-color="#82817E"/>
<stop offset="0.64" stop-color="#7E7D7A"/>
<stop offset="0.75" stop-color="#565552"/>
<stop offset="0.85" stop-color="#373632"/>
<stop offset="0.94" stop-color="#24231F"/>
<stop offset="1" stop-color="#1D1C18"/>
</radialGradient>
<linearGradient id="paint4_linear_326_5" x1="96.8859" y1="158.752" x2="96.8859" y2="63.5004" gradientUnits="userSpaceOnUse">
<stop stop-color="white"/>
<stop offset="0.17" stop-color="#FCFBFA"/>
<stop offset="0.43" stop-color="#BCBCB6"/>
<stop offset="0.52" stop-color="#90908A"/>
<stop offset="0.62" stop-color="#696964"/>
<stop offset="0.72" stop-color="#4B4A46"/>
<stop offset="0.82" stop-color="#353530"/>
<stop offset="0.91" stop-color="#282723"/>
<stop offset="1" stop-color="#24231F"/>
</linearGradient>
<linearGradient id="paint5_linear_326_5" x1="721.13" y1="3346.49" x2="721.13" y2="3340.14" gradientUnits="userSpaceOnUse">
<stop stop-color="white"/>
<stop offset="0.17" stop-color="#FCFBFA"/>
<stop offset="0.43" stop-color="#BCBCB6"/>
<stop offset="0.52" stop-color="#90908A"/>
<stop offset="0.62" stop-color="#696964"/>
<stop offset="0.72" stop-color="#4B4A46"/>
<stop offset="0.82" stop-color="#353530"/>
<stop offset="0.91" stop-color="#282723"/>
<stop offset="1" stop-color="#24231F"/>
</linearGradient>
<linearGradient id="paint6_linear_326_5" x1="721.13" y1="3360.46" x2="721.13" y2="3352.84" gradientUnits="userSpaceOnUse">
<stop stop-color="white"/>
<stop offset="0.17" stop-color="#FCFBFA"/>
<stop offset="0.43" stop-color="#BCBCB6"/>
<stop offset="0.52" stop-color="#90908A"/>
<stop offset="0.62" stop-color="#696964"/>
<stop offset="0.72" stop-color="#4B4A46"/>
<stop offset="0.82" stop-color="#353530"/>
<stop offset="0.91" stop-color="#282723"/>
<stop offset="1" stop-color="#24231F"/>
</linearGradient>
<linearGradient id="paint7_linear_326_5" x1="463.123" y1="3404.91" x2="463.123" y2="3389.67" gradientUnits="userSpaceOnUse">
<stop stop-color="white"/>
<stop offset="0.17" stop-color="#FCFBFA"/>
<stop offset="0.43" stop-color="#BCBCB6"/>
<stop offset="0.52" stop-color="#90908A"/>
<stop offset="0.62" stop-color="#696964"/>
<stop offset="0.72" stop-color="#4B4A46"/>
<stop offset="0.82" stop-color="#353530"/>
<stop offset="0.91" stop-color="#282723"/>
<stop offset="1" stop-color="#24231F"/>
</linearGradient>
<linearGradient id="paint8_linear_326_5" x1="789.502" y1="3371.89" x2="789.502" y2="3361.73" gradientUnits="userSpaceOnUse">
<stop stop-color="white"/>
<stop offset="0.17" stop-color="#FCFBFA"/>
<stop offset="0.43" stop-color="#BCBCB6"/>
<stop offset="0.52" stop-color="#90908A"/>
<stop offset="0.62" stop-color="#696964"/>
<stop offset="0.72" stop-color="#4B4A46"/>
<stop offset="0.82" stop-color="#353530"/>
<stop offset="0.91" stop-color="#282723"/>
<stop offset="1" stop-color="#24231F"/>
</linearGradient>
<linearGradient id="paint9_linear_326_5" x1="713.39" y1="3646.21" x2="713.39" y2="3450.63" gradientUnits="userSpaceOnUse">
<stop stop-color="white"/>
<stop offset="0.17" stop-color="#FCFBFA"/>
<stop offset="0.43" stop-color="#BCBCB6"/>
<stop offset="0.52" stop-color="#90908A"/>
<stop offset="0.62" stop-color="#696964"/>
<stop offset="0.72" stop-color="#4B4A46"/>
<stop offset="0.82" stop-color="#353530"/>
<stop offset="0.91" stop-color="#282723"/>
<stop offset="1" stop-color="#24231F"/>
</linearGradient>
<linearGradient id="paint10_linear_326_5" x1="789.502" y1="3352.84" x2="789.502" y2="3343.95" gradientUnits="userSpaceOnUse">
<stop stop-color="white"/>
<stop offset="0.17" stop-color="#FCFBFA"/>
<stop offset="0.43" stop-color="#BCBCB6"/>
<stop offset="0.52" stop-color="#90908A"/>
<stop offset="0.62" stop-color="#696964"/>
<stop offset="0.72" stop-color="#4B4A46"/>
<stop offset="0.82" stop-color="#353530"/>
<stop offset="0.91" stop-color="#282723"/>
<stop offset="1" stop-color="#24231F"/>
</linearGradient>
<linearGradient id="paint11_linear_326_5" x1="-2666.04" y1="3646.21" x2="-2666.04" y2="3450.63" gradientUnits="userSpaceOnUse">
<stop stop-color="white"/>
<stop offset="0.17" stop-color="#FCFBFA"/>
<stop offset="0.43" stop-color="#BCBCB6"/>
<stop offset="0.52" stop-color="#90908A"/>
<stop offset="0.62" stop-color="#696964"/>
<stop offset="0.72" stop-color="#4B4A46"/>
<stop offset="0.82" stop-color="#353530"/>
<stop offset="0.91" stop-color="#282723"/>
<stop offset="1" stop-color="#24231F"/>
</linearGradient>
<radialGradient id="paint12_radial_326_5" cx="0" cy="0" r="1" gradientUnits="userSpaceOnUse" gradientTransform="translate(5.83564 14.4186) scale(81.4937 320.561)">
<stop stop-color="#0069B4"/>
<stop offset="0.01" stop-color="#0068B3"/>
<stop offset="0.13" stop-color="#0061A6"/>
<stop offset="0.24" stop-color="#005EA1"/>
<stop offset="0.49" stop-color="#005490"/>
<stop offset="0.84" stop-color="#004273"/>
<stop offset="0.96" stop-color="#004072"/>
<stop offset="1" stop-color="#003B6E"/>
</radialGradient>
<linearGradient id="paint13_linear_326_5" x1="123.867" y1="125.015" x2="-2.51655" y2="-4.31271" gradientUnits="userSpaceOnUse">
<stop offset="0.01" stop-color="#20200B"/>
<stop offset="0.65" stop-color="#43423E"/>
<stop offset="0.66" stop-color="#64635F"/>
<stop offset="0.67" stop-color="#A6A5A2"/>
<stop offset="0.68" stop-color="#F2F2EF"/>
<stop offset="0.69" stop-color="#6F6E68"/>
<stop offset="0.71" stop-color="#585752"/>
<stop offset="0.74" stop-color="#42423E"/>
<stop offset="0.77" stop-color="#31312E"/>
<stop offset="0.8" stop-color="#262623"/>
<stop offset="0.85" stop-color="#1F1F1D"/>
<stop offset="1" stop-color="#1D1D1B"/>
</linearGradient>
<radialGradient id="paint14_radial_326_5" cx="0" cy="0" r="1" gradientUnits="userSpaceOnUse" gradientTransform="translate(107.046 14.1543) scale(151.746 150.766)">
<stop stop-color="#55544F"/>
<stop offset="1" stop-color="#4F4F4A"/>
</radialGradient>
<linearGradient id="paint15_linear_326_5" x1="0" y1="63.5004" x2="129.004" y2="63.5004" gradientUnits="userSpaceOnUse">
<stop stop-color="#5C5C5B"/>
<stop offset="0.07" stop-color="#51514F"/>
<stop offset="0.25" stop-color="#3D3D3A"/>
<stop offset="0.44" stop-color="#2F2E2B"/>
<stop offset="0.67" stop-color="#272622"/>
<stop offset="1" stop-color="#24231F"/>
</linearGradient>
<linearGradient id="paint16_linear_326_5" x1="64.5017" y1="127.126" x2="64.5017" y2="-0.000305176" gradientUnits="userSpaceOnUse">
<stop stop-color="#5C5C5B"/>
<stop offset="0.08" stop-color="#565554"/>
<stop offset="0.45" stop-color="#3A3A37"/>
<stop offset="0.77" stop-color="#2A2925"/>
<stop offset="1" stop-color="#24231F"/>
</linearGradient>
<linearGradient id="paint17_linear_326_5" x1="17.2449" y1="37.4275" x2="36.4566" y2="63.2178" gradientUnits="userSpaceOnUse">
<stop stop-color="white"/>
<stop offset="0.11" stop-color="#D8E8F4"/>
<stop offset="0.34" stop-color="#8CBCDD"/>
<stop offset="0.54" stop-color="#5098CC"/>
<stop offset="0.71" stop-color="#257FBF"/>
<stop offset="0.85" stop-color="#0A6FB7"/>
<stop offset="0.93" stop-color="#066BB5"/>
<stop offset="0.95" stop-color="#2878BD"/>
<stop offset="0.97" stop-color="#4081C2"/>
<stop offset="0.99" stop-color="#4F86C6"/>
<stop offset="1" stop-color="#5488C7"/>
</linearGradient>
</defs>
</svg>
