<svg width="176" height="48" viewBox="0 0 176 48" fill="none" xmlns="http://www.w3.org/2000/svg">
<path fill-rule="evenodd" clip-rule="evenodd" d="M0.188183 0.0316506H25.5229C33.8179 0.0316506 42.8626 -0.434031 48.4936 2.17315C58.2242 6.67473 59.3409 21.1805 50.2898 26.7814C44.6301 30.2914 35.7321 29.8131 26.5853 29.8131H-4.84842e-05V0.567025C-4.84842e-05 0.316761 -0.0223811 0.0633295 0.188183 0.0316506ZM19.4038 22.1436C26.7416 22.2069 33.9838 22.9387 35.9235 17.6864C37.3018 13.9609 35.4641 9.925 32.3344 8.59131C29.0323 7.1816 24.0585 8.5533 19.5825 8.05594C19.1645 12.396 19.5218 17.5058 19.4038 22.1436Z" fill="#254F9C"/>
<path fill-rule="evenodd" clip-rule="evenodd" d="M74.8939 0.0316842H102.73C108.422 9.95354 114.853 20.0781 120.149 29.8099H82.0787C81.9925 28.6853 83.3963 27.2439 84.2258 25.8881C85.0967 24.4784 85.754 22.8501 86.7398 21.7888H97.1563C95.1815 17.151 91.6306 12.5354 89.0751 7.87857C84.2673 14.9335 80.0974 22.622 75.4267 29.8131H57.1076C56.9928 28.7423 58.1477 27.6969 58.9038 26.4234C63.9254 17.9937 69.4958 8.27139 74.8939 0.0316842Z" fill="#254F9C"/>
<path fill-rule="evenodd" clip-rule="evenodd" d="M124.82 0.0316842H175.821V8.76875H144.556C144.138 10.1975 144.495 12.396 144.377 14.1193H175.47V22.1436H144.393V29.8131H124.638V0.567059C124.622 0.316795 124.609 0.0633631 124.82 0.0316842Z" fill="#254F9C"/>
<path fill-rule="evenodd" clip-rule="evenodd" d="M19.5825 8.05594C24.049 8.55013 29.0196 7.18163 32.344 8.59135C35.4737 9.92503 37.3114 13.9768 35.9331 17.6864C33.9838 22.9388 26.7289 22.2069 19.4038 22.1436C19.5218 17.5058 19.1645 12.396 19.5825 8.05594Z" fill="white"/>
<path fill-rule="evenodd" clip-rule="evenodd" d="M0.188216 36.4087H176V48H-1.55176e-05V36.944C-1.55176e-05 36.6906 -0.0223481 36.4308 0.188216 36.4087Z" fill="#E52825"/>
</svg>
