<svg width="176" height="103" viewBox="0 0 176 103" fill="none" xmlns="http://www.w3.org/2000/svg">
<path fill-rule="evenodd" clip-rule="evenodd" d="M88.22 8C95.7901 7.99487 103.331 7.05441 110.67 5.2L111.59 4.97L112.28 5.61C117.498 10.4398 121.125 16.7417 122.68 23.68L122.88 24.6L122.22 25.3C111.674 36.1842 103.994 49.5162 99.87 64.1L99.61 65.03L98.69 65.31C95.2967 66.3465 91.7681 66.8723 88.22 66.87C84.6588 66.8667 81.1186 66.3238 77.72 65.26L76.83 65L76.57 64.1C72.4212 49.5157 64.7255 36.1856 54.17 25.3L53.51 24.6L53.71 23.68C55.2995 16.7181 58.9601 10.4008 64.21 5.56L64.9 4.92L65.82 5.15C73.1419 7.0129 80.6649 7.97006 88.22 8Z" fill="#002E61"/>
<path fill-rule="evenodd" clip-rule="evenodd" d="M57.7 31.52C57.6926 24.4577 60.1347 17.6115 64.61 12.1482C69.0852 6.68484 75.3166 2.94262 82.2421 1.55935C89.1676 0.176079 96.3585 1.23738 102.589 4.56235C108.82 7.88733 113.704 13.2702 116.41 19.7934C119.117 26.3166 119.477 33.5765 117.429 40.3355C115.382 47.0945 111.054 52.9344 105.183 56.8597C99.3125 60.785 92.262 62.5528 85.2336 61.8617C78.2052 61.1707 71.634 58.0636 66.64 53.07C63.8006 50.2463 61.5487 46.8881 60.0142 43.1893C58.4798 39.4905 57.6932 35.5244 57.7 31.52Z" fill="#002E61"/>
<path d="M65.66 7.9C63.4121 10.0568 61.4767 12.5173 59.91 15.21C58.3648 17.8854 57.2097 20.7678 56.48 23.77C61.7539 29.2791 66.3498 35.3992 70.17 42C73.9467 48.5563 76.9118 55.5476 79 62.82C80.4231 63.2484 81.8729 63.5825 83.34 63.82C84.9484 64.0651 86.573 64.1888 88.2 64.19C89.85 64.1925 91.4979 64.0721 93.13 63.83C94.5664 63.6184 95.9865 63.3076 97.38 62.9C101.605 48.2383 109.33 34.8233 119.89 23.81C118.427 17.7886 115.286 12.3061 110.83 8C107.205 8.87789 103.532 9.54566 99.83 10C95.9683 10.4773 92.0811 10.7177 88.19 10.72C84.2575 10.7165 80.3294 10.4593 76.43 9.95C72.7953 9.48663 69.1896 8.81891 65.63 7.95L65.66 7.9ZM58.24 14.25C59.9836 11.233 62.1715 8.49566 64.73 6.13L65.11 5.77L65.62 5.9C69.2689 6.81688 72.9686 7.51809 76.7 8C80.5204 8.49122 84.3682 8.73839 88.22 8.74C92.0307 8.74 95.8379 8.50623 99.62 8.04C103.408 7.58832 107.165 6.90707 110.87 6L111.38 5.87L111.76 6.23C116.841 10.9492 120.376 17.095 121.9 23.86L122.02 24.36L121.66 24.73C116.351 30.2315 111.743 36.368 107.94 43C104.134 49.6049 101.167 56.6596 99.11 64L98.96 64.5L98.46 64.66C95.1362 65.6415 91.6856 66.1267 88.22 66.1C86.4956 66.0988 84.7739 65.965 83.07 65.7C81.3543 65.4264 79.6601 65.0321 78 64.52L77.5 64.36L77.36 63.85C75.2802 56.5588 72.3006 49.5549 68.49 43C64.6691 36.3693 60.0478 30.2333 54.73 24.73L54.37 24.36L54.49 23.86C55.2439 20.4846 56.5085 17.244 58.24 14.25Z" fill="#E3E3E2"/>
<path d="M58.48 31.52C58.4795 24.6487 60.8616 17.9898 65.2203 12.678C69.579 7.3661 75.6447 3.72989 82.3839 2.38892C89.123 1.04795 96.1187 2.08519 102.179 5.3239C108.239 8.56261 112.989 13.8024 115.619 20.1505C118.248 26.4985 118.596 33.5621 116.602 40.1376C114.607 46.7132 110.395 52.3938 104.682 56.2116C98.9688 60.0294 92.1087 61.7481 85.2705 61.075C78.4322 60.4019 72.039 57.3785 67.18 52.52C64.4189 49.7646 62.2291 46.4912 60.7361 42.8875C59.2432 39.2838 58.4765 35.4207 58.48 31.52ZM68.55 11.85C64.001 16.3979 61.1699 22.3825 60.5391 28.784C59.9084 35.1855 61.517 41.6076 65.091 46.9559C68.6649 52.3041 73.9829 56.2475 80.1386 58.114C86.2943 59.9804 92.9068 59.6545 98.8492 57.1916C104.791 54.7288 109.696 50.2814 112.726 44.6076C115.757 38.9338 116.726 32.3846 115.469 26.0762C114.212 19.7678 110.806 14.0906 105.831 10.0122C100.857 5.93375 94.6225 3.7065 88.19 3.71C84.5417 3.70763 80.9289 4.42545 77.5586 5.82229C74.1883 7.21913 71.127 9.26752 68.55 11.85Z" fill="#E3E3E2"/>
<path d="M78.09 30C79.0137 29.8146 79.9703 29.8802 80.86 30.19C81.7017 30.4912 82.4264 31.0513 82.93 31.79L83.4 32.89L82.31 32.49C80.68 31.61 79.04 32.1 77.43 32.58C75.38 33.18 73.38 33.78 71.28 32.01C70.8716 31.6712 70.5321 31.257 70.28 30.79C70.0503 30.3936 69.8466 29.9827 69.67 29.56L69 28L70.36 29C70.36 29 73.27 31.24 78.07 30H78.09Z" fill="#E3E3E2"/>
<path fill-rule="evenodd" clip-rule="evenodd" d="M87.55 22C85.55 22 83.61 22.39 82.87 23.44C82.43 23.8324 82.0876 24.322 81.87 24.87C81.87 24.87 76.65 21.35 75 29.08C75 29.08 78.17 26.81 80 28.29C80.6619 29.1276 81.5778 29.7276 82.61 30C84.92 30.62 84.61 31.08 84.76 31.56C84.76 31.56 84.46 32.28 82.46 33.56C80.46 34.84 79.36 34.23 77.54 33.64C77.54 33.64 77.42 36.33 81.03 36.28C81.4625 36.3183 81.8975 36.3183 82.33 36.28C82.33 36.28 78 38.07 79.64 42.52C80.4725 41.525 81.5519 40.7663 82.77 40.32C82.77 40.32 78.08 45.65 84.28 50.84C84.28 50.84 84.28 46.08 86.04 44.62C86.04 44.62 87.04 48.41 86.71 50.49C86.6732 51.4422 86.456 52.3788 86.07 53.25C86.07 53.25 93.42 53.1 91.32 44.25C91.32 44.25 94.26 45.25 93.65 49.25C93.65 49.25 100.25 45.95 95.9 39.17C96.7001 39.232 97.4559 39.5618 98.0455 40.1061C98.6352 40.6504 99.0243 41.3775 99.15 42.17C99.15 42.17 102.68 36.71 96.85 31.52C97.4798 31.376 98.1381 31.4205 98.7427 31.6482C99.3473 31.8758 99.8716 32.2764 100.25 32.8C100.144 31.5125 99.7162 30.2723 99.0049 29.1939C98.2936 28.1156 97.322 27.2338 96.18 26.63C95.29 26.14 96.69 24.71 96.33 23.91L87.55 22Z" fill="#CA0538"/>
<path fill-rule="evenodd" clip-rule="evenodd" d="M92.11 25.22C92.11 25.22 94.49 22.22 98.05 22.61C98.05 22.61 97.05 27.06 93.13 27.88L92.13 25.22H92.11Z" fill="#CA0538"/>
<path fill-rule="evenodd" clip-rule="evenodd" d="M93.26 25.65C94.1006 24.8583 95.1356 24.3028 96.26 24.04C96.0083 24.5976 95.6368 25.0928 95.1718 25.4903C94.7068 25.8879 94.1599 26.178 93.57 26.34L93.26 25.65Z" fill="#E3E3E2"/>
<path fill-rule="evenodd" clip-rule="evenodd" d="M86.25 30C86.0458 29.8411 85.8032 29.739 85.5469 29.7038C85.2905 29.6687 85.0294 29.7019 84.79 29.8C86.2 29.85 86.43 31.85 87.96 31.44C88.2339 31.3609 88.4937 31.2395 88.73 31.08C87.73 31.49 86.91 30.57 86.25 30Z" fill="#E3E3E2"/>
<path fill-rule="evenodd" clip-rule="evenodd" d="M94.26 35.67C94.1459 34.8824 93.7995 34.1468 93.2651 33.5572C92.7307 32.9676 92.0326 32.5507 91.26 32.36C91.5172 33.2195 91.6782 34.105 91.74 35C91.7708 35.7677 91.5799 36.528 91.19 37.19C90.9316 37.5907 90.5907 37.9316 90.19 38.19C90.4623 37.5151 90.5453 36.7786 90.43 36.06C90.2141 35.1479 89.7132 34.3282 89 33.72C89.0088 34.3916 88.9451 35.0621 88.81 35.72C88.6791 36.3559 88.3242 36.9237 87.81 37.32C88.0495 36.5894 87.9994 35.7947 87.67 35.1L86.8 35.57C86.9233 35.8399 86.9871 36.1332 86.9871 36.43C86.9871 36.7268 86.9233 37.0201 86.8 37.29C86.4364 37.8672 85.9842 38.3835 85.46 38.82C87.22 38.71 88.82 38.53 89.64 36.56C89.5649 37.8192 89.056 39.0135 88.2 39.94C89.77 39.63 91.09 39.31 92.06 37.79C92.6864 36.7635 92.9308 35.5489 92.75 34.36C93.66 35.58 93.55 37.17 93.55 38.61C94.8293 37.3138 95.5691 35.5805 95.62 33.76C95.5966 32.9153 95.403 32.0841 95.0507 31.316C94.6985 30.5479 94.1949 29.8588 93.57 29.29L93.24 30.29C93.8915 31.0042 94.3376 31.8813 94.5313 32.8284C94.7249 33.7755 94.6588 34.7574 94.34 35.67H94.26Z" fill="#E3E3E2"/>
<path d="M80.32 31.07C79.6698 30.8806 78.9832 30.8531 78.32 30.99C75.9763 31.641 73.483 31.4968 71.23 30.58C71.401 30.846 71.6176 31.0796 71.87 31.27C73.57 32.72 75.34 32.2 77.14 31.66C78.1577 31.3014 79.2222 31.0925 80.3 31.04L80.32 31.07Z" fill="#CA0538"/>
<path fill-rule="evenodd" clip-rule="evenodd" d="M89.22 19.38C89.83 20.38 90.83 21.76 92.09 21.76C92.6395 21.7798 93.183 21.6403 93.655 21.3581C94.127 21.076 94.5073 20.6634 94.75 20.17C94.478 20.2383 94.1916 20.2208 93.93 20.12C93.5364 19.9515 93.2177 19.6453 93.0337 19.2587C92.8496 18.8722 92.8127 18.4318 92.93 18.02C93.047 17.605 93.3218 17.2523 93.6956 17.0374C94.0694 16.8224 94.5125 16.7624 94.93 16.87C95.2119 16.9577 95.4666 17.116 95.67 17.33C95.4517 16.933 95.3979 16.4663 95.52 16.03C95.6666 15.569 95.9672 15.1725 96.3713 14.9067C96.7755 14.6409 97.2587 14.522 97.74 14.57L94.16 23.4H82.33L78.72 15C79.1984 14.9549 79.6778 15.0753 80.0782 15.341C80.4785 15.6067 80.7757 16.0017 80.92 16.46C80.9816 16.6458 81.0001 16.8433 80.9742 17.0373C80.9482 17.2313 80.8784 17.4169 80.77 17.58C80.95 17.38 81.23 16.99 81.51 16.89C81.9719 16.8237 82.4421 16.9269 82.8337 17.1807C83.2253 17.4344 83.5118 17.8214 83.64 18.27C83.79 19.27 83.46 19.94 82.64 20.22C82.31 20.2871 81.97 20.2871 81.64 20.22C81.9161 20.7207 82.3262 21.1346 82.8242 21.4154C83.3223 21.6962 83.8887 21.8328 84.46 21.81C85.71 21.81 86.63 20.46 87.25 19.43C86.9605 19.6419 86.6086 19.751 86.25 19.74C85.8281 19.7074 85.4341 19.5168 85.1466 19.2062C84.8592 18.8957 84.6995 18.4881 84.6995 18.065C84.6995 17.6419 84.8592 17.2343 85.1466 16.9238C85.4341 16.6132 85.8281 16.4226 86.25 16.39C86.5402 16.3829 86.8259 16.463 87.07 16.62C86.752 16.2964 86.5696 15.8636 86.56 15.41C86.56 14.9724 86.7338 14.5527 87.0433 14.2433C87.3527 13.9338 87.7724 13.76 88.21 13.76C88.6476 13.76 89.0673 13.9338 89.3767 14.2433C89.6862 14.5527 89.86 14.9724 89.86 15.41C89.8432 15.8718 89.6541 16.3106 89.33 16.64C89.5817 16.4811 89.8723 16.3946 90.17 16.39C90.5919 16.4226 90.9859 16.6132 91.2734 16.9238C91.5608 17.2343 91.7205 17.6419 91.7205 18.065C91.7205 18.4881 91.5608 18.8957 91.2734 19.2062C90.9859 19.5168 90.5919 19.7074 90.17 19.74C89.8211 19.6961 89.4826 19.5912 89.17 19.43L89.22 19.38Z" fill="#E8B427"/>
<path d="M85.31 25.6C85.1368 25.59 84.9632 25.59 84.79 25.6C84.7822 25.8317 84.6832 26.0509 84.5147 26.21C84.3462 26.3692 84.1217 26.4554 83.89 26.45C83.6853 26.4534 83.4855 26.3868 83.3237 26.2614C83.1619 26.136 83.0477 25.9591 83 25.76C82.8333 25.7462 82.6688 25.7126 82.51 25.66C82.5374 25.9771 82.6644 26.2774 82.8727 26.5181C83.0811 26.7587 83.3601 26.9274 83.67 27C84.0133 27.0475 84.3617 26.9622 84.6442 26.7615C84.9267 26.5608 85.1219 26.2598 85.19 25.92C85.19 25.82 85.27 25.72 85.31 25.64V25.6ZM83.61 23.4C83.4762 23.502 83.3582 23.6233 83.26 23.76C82.9971 24.015 82.7655 24.3003 82.57 24.61C83.094 24.8317 83.6813 24.853 84.22 24.67C84.9844 24.4995 85.7839 24.5911 86.49 24.93C86.8426 25.0635 87.1581 25.2795 87.41 25.56L86.71 26.19C86.71 26.19 86.26 25.68 86.09 26.14C85.9498 26.691 85.608 27.1693 85.1321 27.4804C84.6562 27.7915 84.0809 27.9127 83.52 27.82C82.9345 27.6759 82.4163 27.335 82.0522 26.8544C81.6881 26.3738 81.5002 25.7826 81.52 25.18C80.82 24.77 77.33 23 75.78 28.02C76.97 27.41 78.93 26.73 80.32 27.86C80.9088 28.6214 81.7307 29.1693 82.66 29.42C84.99 30.05 85.06 30.63 85.14 31.22C85.1336 31.2631 85.1336 31.3069 85.14 31.35V31.5L85.08 31.64C85.08 31.64 84.71 32.5 82.59 33.83C81.937 34.3029 81.1675 34.5891 80.3641 34.6578C79.5608 34.7265 78.7539 34.5752 78.03 34.22C78.27 34.85 78.96 35.68 80.89 35.65C81.2992 35.6852 81.7108 35.6852 82.12 35.65L85.29 35.31L82.52 36.7C82.52 36.7 79.12 38.13 79.87 41.59C80.6398 40.7906 81.5946 40.193 82.65 39.85L84.12 39.49L83.12 40.64C82.006 41.9498 81.4554 43.6471 81.5884 45.3614C81.7214 47.0757 82.5273 48.6678 83.83 49.79C83.95 48.24 84.34 45.39 85.73 44.25L86.31 43.77L86.5 44.5C86.5 44.5 87.5 48.34 87.18 50.5C87.1425 51.2281 87.0217 51.9494 86.82 52.65C88.54 52.32 92.38 50.85 90.82 44.36L90.61 43.49L91.45 43.79C92.3294 44.16 93.0681 44.8005 93.559 45.6186C94.0499 46.4367 94.2674 47.3899 94.18 48.34C95.69 47.24 98.59 44.34 95.46 39.44L95 38.7H95.9C96.6083 38.7477 97.2903 38.9869 97.8733 39.392C98.4562 39.7971 98.9182 40.3528 99.21 41C99.88 39.29 100.61 35.56 96.53 31.93L95.83 31.31L96.74 31.1C97.6849 30.9045 98.6685 31.046 99.52 31.5C99.2764 30.5536 98.8373 29.6688 98.2311 28.9024C97.6248 28.136 96.8648 27.505 96 27.05C95.2294 27.7104 94.3039 28.1646 93.31 28.37L93 27.41C95.18 26.95 97 24.34 97.38 23.05C96.4317 23.0964 95.5035 23.3401 94.6547 23.7654C93.8058 24.1907 93.0549 24.7882 92.45 25.52L91.7 24.92C91.7 24.92 94.24 21.69 98.07 22.13L98.6 22.19L98.48 22.72C98.1349 24.0502 97.4921 25.2846 96.6 26.33C97.7528 26.9924 98.7279 27.9243 99.4419 29.0458C100.156 30.1674 100.588 31.4452 100.7 32.77L100.78 34.53L99.78 33.06C99.5815 32.7561 99.3196 32.4987 99.0124 32.3054C98.7052 32.1121 98.3599 31.9875 98 31.94C103 37.17 99.59 42.41 99.58 42.42L98.98 43.37L98.7 42.29C98.6066 41.7828 98.395 41.3048 98.0822 40.8948C97.7695 40.4847 97.3644 40.1542 96.9 39.93C100.32 46.5 93.9 49.7 93.9 49.71L93.06 50.14L93.2 49.21C93.3826 48.5005 93.3713 47.7549 93.1673 47.0513C92.9632 46.3476 92.5739 45.7117 92.04 45.21C93.43 53.55 86.14 53.7 86.11 53.7H85.23L85.68 52.95C86.0284 52.1464 86.225 51.2852 86.26 50.41C86.3481 48.8169 86.1999 47.2196 85.82 45.67C84.82 47.43 84.82 50.83 84.82 50.84V51.84L84 51.21C79.49 47.44 80.42 43.58 81.45 41.53C80.9144 41.9051 80.4273 42.3451 80 42.84L79.47 43.47L79.18 42.69C78.7351 41.6781 78.638 40.5473 78.904 39.4744C79.1699 38.4015 79.7839 37.4469 80.65 36.76C76.91 36.62 77.05 33.63 77.05 33.62V32.99L77.65 33.18L78.22 33.37C79.6 33.84 80.59 34.18 82.16 33.16C82.9408 32.7349 83.6386 32.1726 84.22 31.5C84.22 31.24 84.15 30.98 82.45 30.5C81.3307 30.1898 80.3372 29.5356 79.61 28.63C78.07 27.46 75.26 29.47 75.25 29.48L74.25 30.18L74.51 28.98C75.44 24.57 77.51 23.55 79.22 23.58C80.0666 23.6161 80.8955 23.8344 81.65 24.22C81.8193 23.928 82.0169 23.6533 82.24 23.4H83.61Z" fill="#E3E3E2"/>
<path fill-rule="evenodd" clip-rule="evenodd" d="M164.84 75.57H149.35L141.24 95.62V75.55H130.84V102.48H149.07L150.71 98.38H163.71L165.57 102.48H175.74L164.84 75.57ZM118.63 90L107.63 75.51H94.41V95.51L86.12 75.51H70.84L64.44 91.51H54.89C54.09 94.86 52.28 96.34 48.97 96.34C45.19 96.34 42.62 93.53 42.62 89.34C42.62 83.89 44.78 81.07 48.9 81.07C52.28 81.07 54.2 82.58 54.79 85.73H65.61V85.32C65.61 78.82 59.03 74.54 49.02 74.54C38.32 74.54 33.25 78.71 32.38 88.29C30.8066 86.6124 28.7142 85.5134 26.44 85.17L22.44 84.81L16.44 84.71C13.88 84.65 12.44 83.71 12.44 82.25C12.44 80.53 13.93 79.58 16.64 79.58C19.76 79.58 21.02 80.74 21.02 83.58H32.41V83.22C32.41 77.66 27.03 74.59 17.28 74.59C6.45 74.59 1.15 77.59 1.15 83.59C1.15 88.73 5.04 91.5 12.49 91.7L16.92 91.81C20.17 91.91 21.63 92.7 21.63 94.42C21.63 95.88 19.58 97.26 17.46 97.26C13.75 97.26 11.8 95.98 11.8 93.57H0V93.83C0 99.67 5.89 102.83 16.59 102.83C26.91 102.83 31.98 100.57 33.59 95.22C36.9 100.85 41.2 102.9 49.59 102.9C54.91 102.9 57.68 102.16 61.13 99.65L60 102.48H70.09L71.94 98.28H85.15L86.91 102.43H104.17V86.43L116.43 102.43H128.64V75.57H118.64V90H118.63ZM153.5 91.59L157.06 82.68L161.06 91.54H153.46L153.5 91.59ZM74.7 91.59L78.29 82.4L82.38 91.59H74.7Z" fill="#002E61"/>
</svg>
